<mxfile host="app.diagrams.net" modified="2022-05-06T09:23:04.773Z" agent="5.0 (Windows NT 10.0; Win64; x64) AppleWebKit/537.36 (KHTML, like Gecko) Chrome/101.0.4951.41 Safari/537.36 Edg/101.0.1210.32" etag="31vYBS9AA4GLqn_TnaAc" version="18.0.1" type="github">
  <diagram id="C5RBs43oDa-KdzZeNtuy" name="Page-1">
    <mxGraphModel dx="716" dy="414" grid="0" gridSize="10" guides="1" tooltips="1" connect="1" arrows="1" fold="1" page="1" pageScale="1" pageWidth="827" pageHeight="1169" math="0" shadow="0">
      <root>
        <mxCell id="WIyWlLk6GJQsqaUBKTNV-0" />
        <mxCell id="WIyWlLk6GJQsqaUBKTNV-1" parent="WIyWlLk6GJQsqaUBKTNV-0" />
        <mxCell id="HcIWnRskErsmktHxAGK7-2" value="" style="edgeStyle=orthogonalEdgeStyle;rounded=0;orthogonalLoop=1;jettySize=auto;html=1;" edge="1" parent="WIyWlLk6GJQsqaUBKTNV-1" source="HcIWnRskErsmktHxAGK7-0" target="HcIWnRskErsmktHxAGK7-1">
          <mxGeometry relative="1" as="geometry" />
        </mxCell>
        <mxCell id="HcIWnRskErsmktHxAGK7-0" value="进入函数" style="rounded=1;whiteSpace=wrap;html=1;arcSize=50;" vertex="1" parent="WIyWlLk6GJQsqaUBKTNV-1">
          <mxGeometry x="208.25" y="355" width="99" height="46" as="geometry" />
        </mxCell>
        <mxCell id="HcIWnRskErsmktHxAGK7-4" value="" style="edgeStyle=orthogonalEdgeStyle;rounded=0;orthogonalLoop=1;jettySize=auto;html=1;" edge="1" parent="WIyWlLk6GJQsqaUBKTNV-1" source="HcIWnRskErsmktHxAGK7-1" target="HcIWnRskErsmktHxAGK7-3">
          <mxGeometry relative="1" as="geometry" />
        </mxCell>
        <mxCell id="HcIWnRskErsmktHxAGK7-1" value="读取RTC寄存器" style="whiteSpace=wrap;html=1;rounded=1;arcSize=0;" vertex="1" parent="WIyWlLk6GJQsqaUBKTNV-1">
          <mxGeometry x="209.38" y="425" width="96.75" height="35" as="geometry" />
        </mxCell>
        <mxCell id="HcIWnRskErsmktHxAGK7-6" value="" style="edgeStyle=orthogonalEdgeStyle;rounded=0;orthogonalLoop=1;jettySize=auto;html=1;" edge="1" parent="WIyWlLk6GJQsqaUBKTNV-1" source="HcIWnRskErsmktHxAGK7-3" target="HcIWnRskErsmktHxAGK7-5">
          <mxGeometry relative="1" as="geometry" />
        </mxCell>
        <mxCell id="HcIWnRskErsmktHxAGK7-3" value="在主页上更新显示RTC时间" style="whiteSpace=wrap;html=1;rounded=1;arcSize=0;" vertex="1" parent="WIyWlLk6GJQsqaUBKTNV-1">
          <mxGeometry x="209.38" y="484" width="96.75" height="35" as="geometry" />
        </mxCell>
        <mxCell id="HcIWnRskErsmktHxAGK7-13" style="edgeStyle=orthogonalEdgeStyle;rounded=0;orthogonalLoop=1;jettySize=auto;html=1;entryX=0.5;entryY=0;entryDx=0;entryDy=0;" edge="1" parent="WIyWlLk6GJQsqaUBKTNV-1" source="HcIWnRskErsmktHxAGK7-5" target="HcIWnRskErsmktHxAGK7-8">
          <mxGeometry relative="1" as="geometry" />
        </mxCell>
        <mxCell id="HcIWnRskErsmktHxAGK7-16" style="edgeStyle=orthogonalEdgeStyle;rounded=0;orthogonalLoop=1;jettySize=auto;html=1;exitX=1;exitY=0.5;exitDx=0;exitDy=0;entryX=0;entryY=0.5;entryDx=0;entryDy=0;" edge="1" parent="WIyWlLk6GJQsqaUBKTNV-1" source="HcIWnRskErsmktHxAGK7-5" target="HcIWnRskErsmktHxAGK7-14">
          <mxGeometry relative="1" as="geometry" />
        </mxCell>
        <mxCell id="HcIWnRskErsmktHxAGK7-5" value="RTC小时、分钟&lt;br&gt;发生更新" style="rhombus;whiteSpace=wrap;html=1;rounded=1;arcSize=0;" vertex="1" parent="WIyWlLk6GJQsqaUBKTNV-1">
          <mxGeometry x="182" y="543" width="151.5" height="64" as="geometry" />
        </mxCell>
        <mxCell id="HcIWnRskErsmktHxAGK7-8" value="退出函数" style="rounded=1;whiteSpace=wrap;html=1;arcSize=50;" vertex="1" parent="WIyWlLk6GJQsqaUBKTNV-1">
          <mxGeometry x="208.25" y="628" width="99" height="46" as="geometry" />
        </mxCell>
        <mxCell id="HcIWnRskErsmktHxAGK7-20" value="" style="edgeStyle=orthogonalEdgeStyle;rounded=0;orthogonalLoop=1;jettySize=auto;html=1;" edge="1" parent="WIyWlLk6GJQsqaUBKTNV-1" source="HcIWnRskErsmktHxAGK7-14" target="HcIWnRskErsmktHxAGK7-19">
          <mxGeometry relative="1" as="geometry" />
        </mxCell>
        <mxCell id="HcIWnRskErsmktHxAGK7-14" value="i = 0" style="whiteSpace=wrap;html=1;rounded=1;arcSize=0;" vertex="1" parent="WIyWlLk6GJQsqaUBKTNV-1">
          <mxGeometry x="354.25" y="562" width="49" height="26" as="geometry" />
        </mxCell>
        <mxCell id="HcIWnRskErsmktHxAGK7-17" value="否" style="text;html=1;align=center;verticalAlign=middle;resizable=0;points=[];autosize=1;strokeColor=none;fillColor=none;" vertex="1" parent="WIyWlLk6GJQsqaUBKTNV-1">
          <mxGeometry x="235.25" y="605" width="22" height="18" as="geometry" />
        </mxCell>
        <mxCell id="HcIWnRskErsmktHxAGK7-18" value="是" style="text;html=1;align=center;verticalAlign=middle;resizable=0;points=[];autosize=1;strokeColor=none;fillColor=none;" vertex="1" parent="WIyWlLk6GJQsqaUBKTNV-1">
          <mxGeometry x="324.25" y="557" width="22" height="18" as="geometry" />
        </mxCell>
        <mxCell id="HcIWnRskErsmktHxAGK7-21" style="edgeStyle=elbowEdgeStyle;rounded=0;orthogonalLoop=1;jettySize=auto;html=1;elbow=vertical;entryX=1;entryY=0.5;entryDx=0;entryDy=0;" edge="1" parent="WIyWlLk6GJQsqaUBKTNV-1" source="HcIWnRskErsmktHxAGK7-19" target="HcIWnRskErsmktHxAGK7-8">
          <mxGeometry relative="1" as="geometry">
            <mxPoint x="419.25" y="647" as="targetPoint" />
            <Array as="points">
              <mxPoint x="488.25" y="651" />
            </Array>
          </mxGeometry>
        </mxCell>
        <mxCell id="HcIWnRskErsmktHxAGK7-25" style="edgeStyle=elbowEdgeStyle;rounded=0;orthogonalLoop=1;jettySize=auto;elbow=vertical;html=1;entryX=0.5;entryY=1;entryDx=0;entryDy=0;" edge="1" parent="WIyWlLk6GJQsqaUBKTNV-1" source="HcIWnRskErsmktHxAGK7-19" target="HcIWnRskErsmktHxAGK7-24">
          <mxGeometry relative="1" as="geometry" />
        </mxCell>
        <mxCell id="HcIWnRskErsmktHxAGK7-19" value="i &amp;lt; 队列数组长度" style="rhombus;whiteSpace=wrap;html=1;rounded=1;arcSize=0;" vertex="1" parent="WIyWlLk6GJQsqaUBKTNV-1">
          <mxGeometry x="424.25" y="550" width="128" height="50" as="geometry" />
        </mxCell>
        <mxCell id="HcIWnRskErsmktHxAGK7-22" value="否" style="text;html=1;align=center;verticalAlign=middle;resizable=0;points=[];autosize=1;strokeColor=none;fillColor=none;" vertex="1" parent="WIyWlLk6GJQsqaUBKTNV-1">
          <mxGeometry x="468.25" y="600" width="22" height="18" as="geometry" />
        </mxCell>
        <mxCell id="HcIWnRskErsmktHxAGK7-23" value="是" style="text;html=1;align=center;verticalAlign=middle;resizable=0;points=[];autosize=1;strokeColor=none;fillColor=none;" vertex="1" parent="WIyWlLk6GJQsqaUBKTNV-1">
          <mxGeometry x="465.25" y="532" width="22" height="18" as="geometry" />
        </mxCell>
        <mxCell id="HcIWnRskErsmktHxAGK7-26" style="edgeStyle=elbowEdgeStyle;rounded=0;orthogonalLoop=1;jettySize=auto;html=1;" edge="1" parent="WIyWlLk6GJQsqaUBKTNV-1" source="HcIWnRskErsmktHxAGK7-24">
          <mxGeometry relative="1" as="geometry">
            <mxPoint x="490.25" y="651" as="targetPoint" />
            <Array as="points">
              <mxPoint x="573.25" y="575" />
            </Array>
          </mxGeometry>
        </mxCell>
        <mxCell id="HcIWnRskErsmktHxAGK7-30" style="edgeStyle=elbowEdgeStyle;rounded=0;orthogonalLoop=1;jettySize=auto;html=1;entryX=0.5;entryY=1;entryDx=0;entryDy=0;" edge="1" parent="WIyWlLk6GJQsqaUBKTNV-1" source="HcIWnRskErsmktHxAGK7-24" target="HcIWnRskErsmktHxAGK7-28">
          <mxGeometry relative="1" as="geometry" />
        </mxCell>
        <mxCell id="HcIWnRskErsmktHxAGK7-24" value="第i个队列非空" style="rhombus;whiteSpace=wrap;html=1;rounded=1;arcSize=0;" vertex="1" parent="WIyWlLk6GJQsqaUBKTNV-1">
          <mxGeometry x="424.25" y="476.5" width="128" height="50" as="geometry" />
        </mxCell>
        <mxCell id="HcIWnRskErsmktHxAGK7-27" value="否" style="text;html=1;align=center;verticalAlign=middle;resizable=0;points=[];autosize=1;strokeColor=none;fillColor=none;" vertex="1" parent="WIyWlLk6GJQsqaUBKTNV-1">
          <mxGeometry x="549.25" y="484" width="22" height="18" as="geometry" />
        </mxCell>
        <mxCell id="HcIWnRskErsmktHxAGK7-32" style="edgeStyle=elbowEdgeStyle;rounded=0;orthogonalLoop=1;jettySize=auto;html=1;entryX=0.5;entryY=1;entryDx=0;entryDy=0;" edge="1" parent="WIyWlLk6GJQsqaUBKTNV-1" source="HcIWnRskErsmktHxAGK7-28" target="HcIWnRskErsmktHxAGK7-29">
          <mxGeometry relative="1" as="geometry" />
        </mxCell>
        <mxCell id="HcIWnRskErsmktHxAGK7-36" style="edgeStyle=elbowEdgeStyle;rounded=0;orthogonalLoop=1;jettySize=auto;html=1;entryX=1;entryY=0.5;entryDx=0;entryDy=0;" edge="1" parent="WIyWlLk6GJQsqaUBKTNV-1" source="HcIWnRskErsmktHxAGK7-28" target="HcIWnRskErsmktHxAGK7-35">
          <mxGeometry relative="1" as="geometry" />
        </mxCell>
        <mxCell id="HcIWnRskErsmktHxAGK7-28" value="第i个队列非提醒状态" style="rhombus;whiteSpace=wrap;html=1;rounded=1;arcSize=0;" vertex="1" parent="WIyWlLk6GJQsqaUBKTNV-1">
          <mxGeometry x="416.75" y="410" width="143" height="50" as="geometry" />
        </mxCell>
        <mxCell id="HcIWnRskErsmktHxAGK7-39" style="edgeStyle=elbowEdgeStyle;rounded=0;orthogonalLoop=1;jettySize=auto;html=1;entryX=0.5;entryY=0;entryDx=0;entryDy=0;" edge="1" parent="WIyWlLk6GJQsqaUBKTNV-1" source="HcIWnRskErsmktHxAGK7-29" target="HcIWnRskErsmktHxAGK7-35">
          <mxGeometry relative="1" as="geometry">
            <mxPoint x="385.25" y="399" as="targetPoint" />
            <Array as="points">
              <mxPoint x="378.25" y="356" />
              <mxPoint x="376.25" y="381" />
            </Array>
          </mxGeometry>
        </mxCell>
        <mxCell id="HcIWnRskErsmktHxAGK7-42" value="" style="edgeStyle=elbowEdgeStyle;rounded=0;orthogonalLoop=1;jettySize=auto;html=1;" edge="1" parent="WIyWlLk6GJQsqaUBKTNV-1" source="HcIWnRskErsmktHxAGK7-29" target="HcIWnRskErsmktHxAGK7-41">
          <mxGeometry relative="1" as="geometry" />
        </mxCell>
        <mxCell id="HcIWnRskErsmktHxAGK7-29" value="第i个队列提醒时间&lt;br&gt;与RTC时间相等" style="rhombus;whiteSpace=wrap;html=1;rounded=1;arcSize=0;" vertex="1" parent="WIyWlLk6GJQsqaUBKTNV-1">
          <mxGeometry x="404.25" y="324" width="168" height="67" as="geometry" />
        </mxCell>
        <mxCell id="HcIWnRskErsmktHxAGK7-31" value="是" style="text;html=1;align=center;verticalAlign=middle;resizable=0;points=[];autosize=1;strokeColor=none;fillColor=none;" vertex="1" parent="WIyWlLk6GJQsqaUBKTNV-1">
          <mxGeometry x="465.25" y="460" width="22" height="18" as="geometry" />
        </mxCell>
        <mxCell id="HcIWnRskErsmktHxAGK7-33" value="是" style="text;html=1;align=center;verticalAlign=middle;resizable=0;points=[];autosize=1;strokeColor=none;fillColor=none;" vertex="1" parent="WIyWlLk6GJQsqaUBKTNV-1">
          <mxGeometry x="465.25" y="391" width="22" height="18" as="geometry" />
        </mxCell>
        <mxCell id="HcIWnRskErsmktHxAGK7-38" style="edgeStyle=elbowEdgeStyle;rounded=0;orthogonalLoop=1;jettySize=auto;html=1;elbow=vertical;" edge="1" parent="WIyWlLk6GJQsqaUBKTNV-1" source="HcIWnRskErsmktHxAGK7-35">
          <mxGeometry relative="1" as="geometry">
            <mxPoint x="413.25" y="572" as="targetPoint" />
          </mxGeometry>
        </mxCell>
        <mxCell id="HcIWnRskErsmktHxAGK7-35" value="i ++" style="whiteSpace=wrap;html=1;rounded=1;arcSize=0;" vertex="1" parent="WIyWlLk6GJQsqaUBKTNV-1">
          <mxGeometry x="354.25" y="422" width="49" height="26" as="geometry" />
        </mxCell>
        <mxCell id="HcIWnRskErsmktHxAGK7-37" value="否" style="text;html=1;align=center;verticalAlign=middle;resizable=0;points=[];autosize=1;strokeColor=none;fillColor=none;" vertex="1" parent="WIyWlLk6GJQsqaUBKTNV-1">
          <mxGeometry x="404.25" y="415" width="22" height="18" as="geometry" />
        </mxCell>
        <mxCell id="HcIWnRskErsmktHxAGK7-40" value="否" style="text;html=1;align=center;verticalAlign=middle;resizable=0;points=[];autosize=1;strokeColor=none;fillColor=none;" vertex="1" parent="WIyWlLk6GJQsqaUBKTNV-1">
          <mxGeometry x="387.25" y="337" width="22" height="18" as="geometry" />
        </mxCell>
        <mxCell id="HcIWnRskErsmktHxAGK7-44" style="edgeStyle=elbowEdgeStyle;rounded=0;orthogonalLoop=1;jettySize=auto;html=1;" edge="1" parent="WIyWlLk6GJQsqaUBKTNV-1" source="HcIWnRskErsmktHxAGK7-41">
          <mxGeometry relative="1" as="geometry">
            <mxPoint x="379" y="356" as="targetPoint" />
            <Array as="points">
              <mxPoint x="379" y="328" />
            </Array>
          </mxGeometry>
        </mxCell>
        <mxCell id="HcIWnRskErsmktHxAGK7-41" value="标记队列状态为提醒状态，服药提醒标志置1" style="whiteSpace=wrap;html=1;rounded=1;arcSize=0;" vertex="1" parent="WIyWlLk6GJQsqaUBKTNV-1">
          <mxGeometry x="423.25" y="270" width="129" height="35" as="geometry" />
        </mxCell>
        <mxCell id="HcIWnRskErsmktHxAGK7-43" value="是" style="text;html=1;align=center;verticalAlign=middle;resizable=0;points=[];autosize=1;strokeColor=none;fillColor=none;" vertex="1" parent="WIyWlLk6GJQsqaUBKTNV-1">
          <mxGeometry x="465.25" y="305" width="22" height="18" as="geometry" />
        </mxCell>
      </root>
    </mxGraphModel>
  </diagram>
</mxfile>
